<svg width="320" height="320" viewBox="0 0 320 320" fill="none" xmlns="http://www.w3.org/2000/svg">
<path d="M156.818 10.1599C157.571 4.13988 157.948 1.13006 158.52 0.590059C159.353 -0.199941 160.647 -0.199941 161.48 0.590059C162.052 1.13006 162.429 4.13988 163.182 10.1599L172.76 86.74C173.064 89.17 173.216 90.3799 173.652 90.8899C174.285 91.6099 175.32 91.8399 176.193 91.4299C176.794 91.1499 177.425 90.1 178.686 88L218.415 21.9599C221.539 16.7699 223.101 14.1699 223.842 13.9099C224.92 13.5399 226.102 14.0699 226.546 15.1299C226.851 15.8499 225.977 18.76 224.229 24.57L201.999 98.4399C201.293 100.79 200.941 101.96 201.136 102.59C201.42 103.52 202.276 104.14 203.238 104.13C203.901 104.12 204.901 103.42 206.901 102.02L269.911 57.9399C274.867 54.4699 277.344 52.74 278.125 52.8C279.261 52.9 280.127 53.87 280.105 55.01C280.091 55.8 278.117 58.0999 274.17 62.6899L223.976 121.09C222.383 122.94 221.587 123.87 221.508 124.53C221.393 125.49 221.922 126.41 222.807 126.79C223.416 127.06 224.613 126.82 227.006 126.36L302.403 111.86C308.332 110.72 311.297 110.15 311.983 110.53C312.981 111.08 313.381 112.32 312.898 113.36C312.566 114.07 309.834 115.36 304.37 117.94L234.892 150.77C232.686 151.81 231.584 152.33 231.244 152.9C230.751 153.73 230.862 154.79 231.516 155.5C231.966 155.99 233.152 156.27 235.525 156.82L310.272 174.41C316.15 175.79 319.09 176.48 319.562 177.11C320.249 178.02 320.114 179.32 319.253 180.07C318.66 180.58 315.643 180.65 309.607 180.77L232.857 182.34C230.421 182.39 229.203 182.42 228.662 182.8C227.875 183.36 227.548 184.37 227.859 185.29C228.073 185.92 229.043 186.66 230.985 188.14L292.158 234.76C296.968 238.43 299.374 240.27 299.551 241.03C299.809 242.15 299.162 243.28 298.071 243.61C297.322 243.84 294.54 242.66 288.975 240.31L218.226 210.36C215.98 209.41 214.857 208.93 214.207 209.06C213.263 209.25 212.555 210.04 212.468 211C212.409 211.66 212.996 212.74 214.171 214.88L251.192 282.5C254.103 287.81 255.559 290.47 255.411 291.25C255.194 292.37 254.148 293.14 253.016 293C252.238 292.9 250.173 290.69 246.043 286.26L193.526 229.96C191.859 228.18 191.025 227.28 190.38 227.14C189.441 226.92 188.475 227.35 188.006 228.2C187.683 228.78 187.786 230 187.991 232.44L194.458 309.35C194.967 315.4 195.221 318.42 194.773 319.07C194.12 320.01 192.854 320.28 191.878 319.69C191.206 319.28 190.215 316.41 188.233 310.68L163.029 237.78C162.229 235.46 161.829 234.31 161.299 233.91C160.529 233.33 159.471 233.33 158.701 233.91C158.171 234.31 157.771 235.46 156.971 237.78L131.767 310.68C129.785 316.41 128.794 319.28 128.122 319.69C127.146 320.28 125.88 320.01 125.227 319.07C124.779 318.42 125.033 315.4 125.542 309.35L132.009 232.44C132.214 230 132.317 228.78 131.994 228.2C131.525 227.35 130.559 226.92 129.621 227.14C128.975 227.28 128.141 228.18 126.474 229.96L73.9568 286.26C69.8267 290.69 67.7616 292.9 66.984 293C65.8524 293.14 64.8055 292.37 64.5894 291.25C64.4409 290.47 65.8966 287.81 68.808 282.5L105.829 214.88C107.004 212.74 107.591 211.66 107.532 211C107.445 210.04 106.737 209.25 105.793 209.06C105.143 208.93 104.02 209.41 101.774 210.36L31.0245 240.31C25.4605 242.66 22.6785 243.84 21.9288 243.61C20.838 243.28 20.191 242.15 20.4489 241.03C20.6262 240.27 23.0316 238.43 27.8424 234.76L89.0148 188.14C90.957 186.66 91.927 185.92 92.141 185.29C92.452 184.37 92.125 183.36 91.338 182.8C90.797 182.42 89.5787 182.39 87.1425 182.34L10.3933 180.77C4.35749 180.65 1.3395 180.58 0.747495 180.07C-0.114065 179.32 -0.249315 178.02 0.438095 177.11C0.910495 176.48 3.84969 175.79 9.72809 174.41L84.475 156.82C86.8477 156.27 88.034 155.99 88.4844 155.5C89.1385 154.79 89.2491 153.73 88.756 152.9C88.4164 152.33 87.3137 151.81 85.1083 150.77L15.6304 117.94C10.1664 115.36 7.4344 114.07 7.1023 113.36C6.6191 112.32 7.01889 111.08 8.01699 110.53C8.70279 110.15 11.6676 110.72 17.5971 111.86L92.994 126.36C95.387 126.82 96.584 127.06 97.193 126.79C98.078 126.41 98.607 125.49 98.492 124.53C98.414 123.87 97.617 122.94 96.024 121.09L45.8303 62.6899C41.8829 58.0999 39.9092 55.8 39.8946 55.01C39.8732 53.87 40.739 52.9 41.8751 52.8C42.6558 52.74 45.1335 54.4699 50.0889 57.9399L113.099 102.02C115.099 103.42 116.099 104.12 116.762 104.13C117.724 104.14 118.58 103.52 118.864 102.59C119.059 101.96 118.707 100.79 118.001 98.4399L95.771 24.57C94.023 18.76 93.149 15.8499 93.454 15.1299C93.898 14.0699 95.08 13.5399 96.158 13.9099C96.899 14.1699 98.461 16.7699 101.585 21.9599L141.314 88C142.575 90.1 143.206 91.1499 143.807 91.4299C144.68 91.8399 145.715 91.6099 146.348 90.8899C146.784 90.3799 146.936 89.17 147.24 86.74L156.818 10.1599Z" fill="#D0BCFF"/>
</svg>
