<svg xmlns="http://www.w3.org/2000/svg" width="320" height="320" fill="none" viewBox="0 0 320 320"><path fill="#d0bcff" d="M157.39 2.55c.74-1.32 1.1-1.97 1.55-2.25.65-.4 1.47-.4 2.12 0 .45.28.81.93 1.55 2.25l25.26 45.15c.45.81.68 1.22.99 1.46.44.36 1.01.51 1.57.42.39-.06.79-.29 1.58-.77l44.46-26.47c1.29-.77 1.94-1.16 2.46-1.17.77-.03 1.47.38 1.84 1.05.25.47.24 1.22.22 2.73l-.7 51.73c-.02.93-.02 1.39.12 1.76.2.53.62.95 1.15 1.15.37.14.83.14 1.76.12l51.73-.7c1.51-.02 2.26-.03 2.73.22.67.37 1.08 1.07 1.05 1.84-.01.52-.4 1.17-1.17 2.46l-26.47 44.46c-.48.79-.71 1.19-.77 1.58-.09.56.06 1.13.42 1.57.24.31.65.54 1.46.99l45.15 25.26c1.32.74 1.97 1.1 2.25 1.55.4.65.4 1.47 0 2.12-.28.45-.93.81-2.25 1.55l-45.15 25.26c-.81.45-1.22.68-1.46.99-.36.44-.51 1.01-.42 1.57.06.39.29.79.77 1.58l26.47 44.46c.77 1.29 1.16 1.94 1.17 2.46.03.77-.38 1.47-1.05 1.84-.47.25-1.22.24-2.73.22l-51.73-.7c-.93-.02-1.39-.02-1.76.12-.53.2-.95.62-1.15 1.15-.14.37-.14.83-.12 1.76l.7 51.73c.02 1.51.03 2.26-.22 2.73-.37.67-1.07 1.08-1.84 1.05-.52-.01-1.17-.4-2.46-1.17l-44.46-26.47c-.79-.48-1.19-.71-1.58-.77-.56-.09-1.13.06-1.57.42-.31.24-.54.65-.99 1.46l-25.26 45.15c-.74 1.32-1.1 1.97-1.55 2.25-.65.4-1.47.4-2.12 0-.45-.28-.81-.93-1.55-2.25l-25.26-45.15c-.45-.81-.68-1.22-.99-1.46-.44-.36-1.01-.51-1.57-.42-.39.06-.79.29-1.58.77l-44.46 26.47c-1.29.77-1.94 1.16-2.46 1.17-.77.03-1.47-.38-1.84-1.05-.25-.47-.24-1.22-.22-2.73l.7-51.73c.02-.93.02-1.39-.12-1.76-.2-.53-.62-.95-1.15-1.15-.37-.14-.83-.14-1.76-.12l-51.73.7c-1.51.02-2.26.03-2.73-.22a2.01 2.01 0 0 1-1.05-1.84c.01-.52.4-1.17 1.17-2.46l26.47-44.46c.48-.79.71-1.19.77-1.58.09-.56-.06-1.13-.42-1.57-.24-.31-.65-.54-1.46-.99L2.55 162.61c-1.32-.74-1.97-1.1-2.25-1.55-.4-.65-.4-1.47 0-2.12.28-.45.93-.81 2.25-1.55l45.15-25.26c.81-.45 1.22-.68 1.46-.99.36-.44.51-1.01.42-1.57-.06-.39-.29-.79-.77-1.58L22.34 83.53c-.77-1.29-1.16-1.94-1.17-2.46-.03-.77.38-1.47 1.05-1.84.47-.25 1.22-.24 2.73-.22l51.73.7c.93.02 1.39.02 1.76-.12.53-.2.95-.62 1.15-1.15.14-.37.14-.83.12-1.76l-.7-51.73c-.02-1.51-.03-2.26.22-2.73.37-.67 1.07-1.08 1.84-1.05.52.01 1.17.4 2.46 1.17l44.46 26.47c.79.48 1.19.71 1.58.77.56.09 1.13-.06 1.57-.42.31-.24.54-.65.99-1.46z"/></svg>