<svg xmlns="http://www.w3.org/2000/svg" width="320" height="254" fill="none" viewBox="0 0 320 254"><path fill="#d0bcff" d="M306.405 84.081c6.709 13.51 10.063 20.265 11.757 27.322a67.1 67.1 0 0 1 0 31.194c-1.694 7.057-5.048 13.812-11.757 27.322l-20.438 41.16c-6.709 13.51-10.063 20.265-14.472 25.501-6.375 7.568-14.411 12.963-23.236 15.597C242.155 254 235.446 254 222.028 254H97.972c-13.418 0-20.127 0-26.231-1.822-8.825-2.635-16.861-8.029-23.236-15.598-4.409-5.235-7.763-11.991-14.472-25.501l-20.438-41.16c-6.709-13.51-10.063-20.265-11.757-27.322a67.1 67.1 0 0 1 0-31.194c1.694-7.057 5.048-13.812 11.757-27.322l20.438-41.16c6.709-13.51 10.063-20.266 14.472-25.501C54.88 9.851 62.916 4.457 71.741 1.822 77.845 0 84.554 0 97.972 0h124.056c13.418 0 20.127 0 26.231 1.822 8.825 2.635 16.861 8.029 23.236 15.598 4.409 5.235 7.763 11.99 14.472 25.501z"/></svg>