<svg width="320" height="254" viewBox="0 0 320 254" fill="none" xmlns="http://www.w3.org/2000/svg">
<path d="M306.405 84.081C313.114 97.591 316.468 104.346 318.162 111.403C320.613 121.606 320.613 132.394 318.162 142.597C316.468 149.654 313.114 156.409 306.405 169.919L285.967 211.079C279.258 224.589 275.904 231.344 271.495 236.58C265.12 244.148 257.084 249.543 248.259 252.177C242.155 254 235.446 254 222.028 254H97.972C84.554 254 77.845 254 71.741 252.178C62.916 249.543 54.88 244.149 48.505 236.58C44.096 231.345 40.742 224.589 34.033 211.079L13.595 169.919C6.88599 156.409 3.53201 149.654 1.83801 142.597C-0.612994 132.394 -0.612994 121.606 1.83801 111.403C3.53201 104.346 6.88599 97.591 13.595 84.081L34.033 42.921C40.742 29.411 44.096 22.655 48.505 17.42C54.88 9.85098 62.916 4.45699 71.741 1.82199C77.845 -9.05991e-06 84.554 0 97.972 0H222.028C235.446 0 242.155 -9.05991e-06 248.259 1.82199C257.084 4.45699 265.12 9.85098 271.495 17.42C275.904 22.655 279.258 29.41 285.967 42.921L306.405 84.081Z" fill="#D0BCFF"/>
</svg>
