<svg xmlns="http://www.w3.org/2000/svg" width="280" height="280" fill="none" viewBox="0 0 280 280"><path fill="#d0bcff" d="M0 44.21c0-1.56 0-2.34.02-2.999C.717 18.757 18.757.717 41.211.021c.66-.021 1.44-.021 3-.021C52.53 0 56.69 0 60.208.11 179.96 3.825 276.17 100.037 279.89 219.791c.11 3.518.11 7.678.11 15.997 0 1.56 0 2.34-.02 3-.7 22.454-18.74 40.494-41.19 41.191-.66.02-1.44.02-3 .02H62.945c-19.018 0-28.528 0-36.071-2.987a42.53 42.53 0 0 1-23.887-23.887C0 245.583 0 236.073 0 217.055z"/></svg>