<svg width="320" height="320" viewBox="0 0 320 320" fill="none" xmlns="http://www.w3.org/2000/svg">
<path fill-rule="evenodd" clip-rule="evenodd" d="M273.13 46.8625C261.25 34.988 234.19 40.8597 201.55 59.6813C191.77 23.2855 176.79 2.9362e-06 160 0C143.2 -2.9362e-06 128.22 23.2841 118.45 59.6779C85.7999 40.8581 58.75 34.9874 46.87 46.8614C35 58.7367 40.8699 85.7963 59.6899 118.446C23.2899 128.222 0 143.204 0 160C0 176.793 23.2801 191.773 59.6801 201.549C40.8501 234.2 34.98 261.261 46.85 273.137C58.73 285.013 85.7899 279.138 118.44 260.31C128.22 296.711 143.2 320 160 320C176.79 320 191.77 296.709 201.55 260.307C234.21 279.136 261.27 285.012 273.15 273.136C285.02 261.26 279.15 234.2 260.32 201.549C296.72 191.773 320 176.793 320 160C320 143.204 296.71 128.222 260.3 118.446C279.13 85.7966 285 58.7376 273.13 46.8625Z" fill="#D0BCFF"/>
</svg>
