<svg xmlns="http://www.w3.org/2000/svg" width="320" height="320" fill="none" viewBox="0 0 320 320"><path fill="#d0bcff" fill-rule="evenodd" d="M273.13 46.863c-11.88-11.875-38.94-6.003-71.58 12.818C191.77 23.286 176.79 0 160 0c-16.8 0-31.78 23.284-41.55 59.678-32.65-18.82-59.7-24.69-71.58-12.817-11.87 11.876-6 38.935 12.82 71.585C23.29 128.222 0 143.204 0 160c0 16.793 23.28 31.773 59.68 41.549-18.83 32.651-24.7 59.712-12.83 71.588 11.88 11.876 38.94 6.001 71.59-12.827C128.22 296.711 143.2 320 160 320c16.79 0 31.77-23.291 41.55-59.693 32.66 18.829 59.72 24.705 71.6 12.829 11.87-11.876 6-38.936-12.83-71.587C296.72 191.773 320 176.793 320 160c0-16.796-23.29-31.778-59.7-41.554 18.83-32.65 24.7-59.708 12.83-71.583" clip-rule="evenodd"/></svg>