<svg xmlns="http://www.w3.org/2000/svg" width="302" height="312" fill="none" viewBox="0 0 302 312"><path fill="#d0bcff" d="M92.48 26.632c18.16-13.196 27.25-19.794 36.93-23.074a67.3 67.3 0 0 1 43.18 0c9.68 3.28 18.77 9.878 36.93 23.074l40.85 29.673c10.79 7.836 16.19 11.754 20.58 16.458a67.2 67.2 0 0 1 14.32 23.618c2.14 6.073 3.11 12.667 5.07 25.855l7.56 51.001c3.43 23.136 5.15 34.704 3.42 45.13a67.3 67.3 0 0 1-21.46 39.064c-7.87 7.055-18.56 11.814-39.93 21.332l-48.41 21.563c-12.9 5.744-19.35 8.615-25.97 10.083a67.3 67.3 0 0 1-29.1 0c-6.62-1.468-13.07-4.339-25.97-10.083l-48.41-21.563c-21.37-9.518-32.06-14.277-39.93-21.332A67.3 67.3 0 0 1 .68 218.367c-1.73-10.426-.01-21.994 3.42-45.13l7.56-51.001c1.96-13.188 2.93-19.782 5.07-25.855a67.2 67.2 0 0 1 14.32-23.618c4.39-4.704 9.79-8.622 20.58-16.458z"/></svg>