<svg width="296" height="296" viewBox="0 0 296 296" fill="none" xmlns="http://www.w3.org/2000/svg">
<path d="M21 148C7.9 132.34 0 112.13 0 90.0601C0 40.3201 40.11 0 89.6 0C111.99 0 132.47 8.25991 148.17 21.9099C163.84 8.25991 184.27 0 206.61 0C255.98 0 296 40.3201 296 90.0601C296 112.13 288.12 132.34 275.05 148C288.12 163.66 296 183.87 296 205.94C296 255.68 255.98 296 206.61 296C184.27 296 163.84 287.74 148.17 274.09C132.47 287.74 111.99 296 89.6 296C40.11 296 0 255.68 0 205.94C0 183.87 7.9 163.66 21 148Z" fill="#D0BCFF"/>
</svg>
