<svg xmlns="http://www.w3.org/2000/svg" width="320" height="320" fill="none" viewBox="0 0 320 320"><path fill="#d0bcff" d="M109.63 24.37c15.61-12.08 23.41-18.12 31.75-21.12a55 55 0 0 1 37.24 0c8.34 3 16.14 9.04 31.75 21.12l34.14 26.43 34.12 24.76c16.19 11.75 24.29 17.63 29.7 25.01 7.82 10.69 11.94 23.82 11.66 37.25-.2 9.29-3.41 19-9.85 38.41l-13.4 40.43-12.36 41.42c-5.81 19.44-8.71 29.16-13.78 36.72-7.34 10.94-18.01 18.98-30.28 22.83-8.48 2.67-18.26 2.51-37.82 2.2l-42.5-.67-42.5.67c-19.56.31-29.34.47-37.82-2.2-12.27-3.85-22.94-11.89-30.28-22.83-5.07-7.56-7.97-17.28-13.78-36.72l-12.36-41.42-13.4-40.43C3.42 156.82.21 147.11.01 137.82c-.28-13.43 3.84-26.56 11.66-37.25 5.41-7.38 13.51-13.26 29.7-25.01L75.49 50.8z"/></svg>