<svg width="320" height="280" viewBox="0 0 320 280" fill="none" xmlns="http://www.w3.org/2000/svg">
<path d="M319.98 138.106C319.72 116.574 303.73 99.333 284.24 99.621C283.17 99.621 282.11 99.711 281.06 99.838C281.88 99.098 282.68 98.341 283.44 97.511C297.4 82.489 297.69 57.782 284.11 42.344C283.31 41.443 282.52 40.541 281.7 39.675C267.74 24.653 245.42 24.977 231.82 40.415C231.07 41.262 230.39 42.146 229.72 43.048C229.83 41.894 229.9 40.721 229.92 39.531C230.19 17.998 214.61 0.307 195.14 0C194.57 0 194 0 193.43 0H192.27C177.84 0 165.46 9.59399 160 23.318C154.54 9.59399 142.15 0 127.73 0H126.57C126 0 125.43 0 124.86 0C105.39 0.289 89.8099 17.98 90.0699 39.531C90.0699 40.721 90.15 41.894 90.26 43.048C89.6 42.146 88.91 41.262 88.16 40.415C74.58 24.977 52.24 24.653 38.28 39.675C37.47 40.559 36.65 41.443 35.87 42.344C22.29 57.782 22.58 82.471 36.54 97.511C37.31 98.341 38.1 99.098 38.92 99.838C37.88 99.711 36.82 99.639 35.74 99.621C16.27 99.333 0.28 116.574 0 138.106C0 138.738 0 139.369 0 140C0 140.631 0 141.262 0 141.894C0.26 163.427 16.26 180.667 35.74 180.379C36.82 180.379 37.88 180.289 38.92 180.162C38.1 180.902 37.31 181.659 36.54 182.489C22.58 197.511 22.29 222.218 35.87 237.656C36.67 238.557 37.47 239.459 38.28 240.325C52.24 255.347 74.56 255.023 88.16 239.585C88.91 238.738 89.6 237.854 90.26 236.952C90.15 238.106 90.0799 239.279 90.0699 240.469C89.8099 262.002 105.38 279.711 124.86 280C125.43 280 126 280 126.57 280H127.73C142.16 280 154.54 270.406 160 256.682C165.46 270.406 177.85 280 192.27 280H193.43C194 280 194.57 280 195.14 280C214.61 279.711 230.19 262.02 229.93 240.469C229.93 239.279 229.85 238.106 229.74 236.952C230.4 237.854 231.09 238.738 231.84 239.585C245.42 255.023 267.76 255.347 281.72 240.325C282.53 239.441 283.35 238.557 284.13 237.656C297.71 222.218 297.42 197.529 283.46 182.489C282.69 181.659 281.9 180.902 281.08 180.162C282.12 180.289 283.18 180.361 284.26 180.379C303.73 180.667 319.74 163.445 320 141.894C320 141.262 320 140.631 320 140C320 139.369 320 138.738 320 138.106H319.98Z" fill="#D0BCFF"/>
</svg>
