<svg width="280" height="280" viewBox="0 0 280 280" fill="none" xmlns="http://www.w3.org/2000/svg">
<path d="M178.73 6.20997C238.87 -19.91 299.91 41.13 273.79 101.27L269.47 111.21C261.5 129.58 261.5 150.42 269.47 168.79L273.79 178.73C299.91 238.87 238.87 299.91 178.73 273.79L168.79 269.47C150.42 261.5 129.58 261.5 111.21 269.47L101.27 273.79C41.128 299.91 -19.9141 238.87 6.20694 178.73L10.526 168.79C18.501 150.42 18.501 129.58 10.526 111.21L6.20694 101.27C-19.9141 41.13 41.128 -19.91 101.27 6.20997L111.21 10.53C129.58 18.5 150.42 18.5 168.79 10.53L178.73 6.20997Z" fill="#D0BCFF"/>
</svg>
