<svg width="320" height="300" viewBox="0 0 320 300" fill="none" xmlns="http://www.w3.org/2000/svg">
<path d="M15.715 80.54C18.289 55.96 19.576 43.67 24.303 33.978C31.142 19.945 43.077 9.11002 57.628 3.72302C67.683 2.24113e-05 79.933 0 104.432 0H228.137C257.764 0 272.578 3.8147e-06 283.887 4.854C300.261 11.882 312.72 25.849 317.927 43.02C321.523 54.87 319.967 69.73 316.854 99.46L304.285 219.46C301.711 244.04 300.424 256.33 295.697 266.02C288.858 280.05 276.923 290.89 262.372 296.28C252.317 300 240.067 300 215.568 300H91.863C62.236 300 47.422 300 36.113 295.15C19.739 288.12 7.28 274.15 2.073 256.98C-1.524 245.13 0.0330019 230.27 3.146 200.54L15.715 80.54Z" fill="#D0BCFF"/>
</svg>
