<svg xmlns="http://www.w3.org/2000/svg" width="320" height="320" fill="none" viewBox="0 0 320 320"><path fill="#d0bcff" d="M145.15 7.904c6.83-10.539 22.87-10.539 29.7 0l16.39 25.261c4.49 6.928 13.56 9.745 21.45 6.665l28.78-11.227c12.01-4.683 24.98 4.329 24.04 16.697l-2.27 29.65c-.63 8.13 4.97 15.5 13.25 17.45l30.19 7.09c12.59 2.96 17.55 17.54 9.18 27.02l-20.06 22.7c-5.5 6.23-5.5 15.35 0 21.58l20.06 22.7c8.37 9.48 3.41 24.06-9.18 27.02l-30.19 7.09c-8.28 1.95-13.88 9.32-13.25 17.45l2.27 29.65c.94 12.37-12.03 21.38-24.04 16.7l-28.78-11.23c-7.89-3.08-16.96-.26-21.45 6.67l-16.39 25.26c-6.83 10.53-22.87 10.53-29.7 0l-16.39-25.26c-4.49-6.93-13.56-9.75-21.45-6.67L78.53 291.4c-12.01 4.68-24.98-4.33-24.04-16.7l2.27-29.65c.63-8.13-4.97-15.5-13.25-17.45l-30.19-7.09c-12.59-2.96-17.55-17.54-9.18-27.02l20.06-22.7c5.5-6.23 5.5-15.35 0-21.58l-20.06-22.7c-8.37-9.48-3.41-24.06 9.18-27.02l30.19-7.09c8.28-1.95 13.88-9.32 13.25-17.45L54.49 45.3c-.94-12.368 12.03-21.38 24.04-16.697l28.78 11.227c7.89 3.08 16.96.263 21.45-6.665z"/></svg>