<svg xmlns="http://www.w3.org/2000/svg" width="340" height="340" fill="none" viewBox="0 0 340 340"><path fill="#d0bcff" d="M261.856 41.24c10.575.72 15.862 1.08 20.135 2.94a26.86 26.86 0 0 1 13.825 13.83c1.869 4.27 2.228 9.56 2.946 20.13l1.64 24.13c.291 4.28.436 6.42.901 8.46a26.8 26.8 0 0 0 3.451 8.33c1.115 1.78 2.525 3.39 5.343 6.62l15.904 18.22c6.969 7.99 10.454 11.98 12.154 16.32a26.84 26.84 0 0 1 0 19.56c-1.7 4.34-5.185 8.33-12.154 16.32l-15.904 18.22c-2.818 3.23-4.228 4.84-5.343 6.62a26.8 26.8 0 0 0-3.451 8.33c-.465 2.04-.61 4.18-.901 8.46l-1.64 24.13c-.718 10.57-1.077 15.86-2.946 20.13a26.86 26.86 0 0 1-13.825 13.83c-4.273 1.86-9.56 2.22-20.135 2.94l-24.131 1.64c-4.277.29-6.415.44-8.458.9a26.8 26.8 0 0 0-8.33 3.45c-1.773 1.12-3.388 2.53-6.618 5.35L196.097 326c-7.986 6.97-11.978 10.45-16.322 12.15a26.72 26.72 0 0 1-19.55 0c-4.344-1.7-8.336-5.18-16.322-12.15l-18.222-15.9c-3.23-2.82-4.845-4.23-6.618-5.35a26.8 26.8 0 0 0-8.33-3.45c-2.043-.46-4.181-.61-8.458-.9l-24.131-1.64c-10.575-.72-15.862-1.08-20.135-2.94a26.86 26.86 0 0 1-13.825-13.83c-1.869-4.27-2.228-9.56-2.947-20.13l-1.64-24.13c-.29-4.28-.435-6.42-.9-8.46a26.8 26.8 0 0 0-3.45-8.33c-1.116-1.78-2.526-3.39-5.344-6.62L13.999 196.1c-6.969-7.99-10.454-11.98-12.154-16.32a26.84 26.84 0 0 1 0-19.56c1.7-4.34 5.185-8.33 12.154-16.32l15.904-18.22c2.818-3.23 4.228-4.84 5.343-6.62a26.8 26.8 0 0 0 3.45-8.33c.466-2.04.611-4.18.902-8.46l1.64-24.13c.718-10.57 1.077-15.86 2.946-20.13A26.86 26.86 0 0 1 58.01 44.18c4.273-1.86 9.56-2.22 20.135-2.94l24.131-1.64c4.277-.29 6.415-.44 8.458-.9a26.8 26.8 0 0 0 8.33-3.45c1.773-1.12 3.388-2.53 6.618-5.35L143.903 14c7.986-6.97 11.978-10.45 16.322-12.15a26.72 26.72 0 0 1 19.55 0c4.344 1.7 8.336 5.18 16.322 12.15l18.222 15.9c3.23 2.82 4.845 4.23 6.618 5.35a26.8 26.8 0 0 0 8.33 3.45c2.043.46 4.181.61 8.458.9z"/></svg>