<svg xmlns="http://www.w3.org/2000/svg" width="320" height="320" fill="none" viewBox="0 0 320 320"><path fill="#d0bcff" d="M136.72 13.19c10.54-17.59 36.02-17.59 46.56 0l11.84 19.77c6.15 10.25 18.28 15.28 29.87 12.37l22.36-5.6c19.89-4.98 37.9 13.03 32.92 32.92l-5.6 22.36c-2.91 11.59 2.12 23.72 12.37 29.87l19.77 11.84c17.59 10.54 17.59 36.02 0 46.56l-19.77 11.84c-10.25 6.15-15.28 18.28-12.37 29.87l5.6 22.36c4.98 19.89-13.03 37.9-32.92 32.92l-22.36-5.6c-11.59-2.91-23.72 2.12-29.87 12.37l-11.84 19.77c-10.54 17.59-36.02 17.59-46.56 0l-11.84-19.77c-6.15-10.25-18.28-15.28-29.87-12.37l-22.364 5.6c-19.883 4.98-37.899-13.03-32.917-32.92l5.604-22.36c2.905-11.59-2.119-23.72-12.373-29.87l-19.773-11.84c-17.583-10.54-17.583-36.02 0-46.56l19.773-11.84c10.254-6.15 15.278-18.28 12.373-29.87l-5.604-22.36c-4.982-19.89 13.034-37.9 32.916-32.92l22.365 5.6c11.59 2.91 23.72-2.12 29.87-12.37z"/></svg>