<svg width="480" height="480" viewBox="0 0 480 480" fill="none" xmlns="http://www.w3.org/2000/svg">
  <path d="M0 0 C4.16365441 3.59421942 7.89819329 7.63591124 11.72265625 11.58203125 C20.70541603 20.78096954 27.68778238 25.20502155 40.77734375 25.79296875 C44.21921533 25.83271323 47.65582874 25.80803044 51.09765625 25.76953125 C75.12012232 25.66323715 97.31974345 34.53121651 114.54199219 51.19482422 C130.00811187 66.84295316 139.81843139 88.19701193 140.2043457 110.37109375 C140.1815009 113.92031598 140.11842303 117.46737822 140.03320312 121.015625 C139.90014284 131.67610226 141.79596194 140.8558238 149.10742188 149.00146484 C151.33446488 151.22096366 153.61129837 153.37461051 155.91015625 155.51953125 C163.38947461 162.75828235 169.24487277 169.63640068 174.16015625 178.83203125 C175.01287109 180.394375 175.01287109 180.394375 175.8828125 181.98828125 C185.8178924 201.71197795 187.86529277 226.669883 181.546875 247.87890625 C175.93032351 264.61547578 167.00509059 277.18922726 154.41015625 289.39453125 C145.5664686 298.02184796 140.81836346 304.99446859 140.19921875 317.60546875 C140.1564179 321.14081918 140.18605799 324.67163913 140.22265625 328.20703125 C140.32155361 352.48633315 131.66696775 374.77871573 114.79736328 392.21386719 C99.14923434 407.67998687 77.79517557 417.49030639 55.62109375 417.8762207 C52.07187152 417.8533759 48.52480928 417.79029803 44.9765625 417.70507812 C34.31608524 417.57201784 25.1363637 419.46783694 16.99072266 426.77929688 C14.77122384 429.00633988 12.61757699 431.28317337 10.47265625 433.58203125 C3.23390515 441.06134961 -3.64421318 446.91674777 -12.83984375 451.83203125 C-14.4021875 452.68474609 -14.4021875 452.68474609 -15.99609375 453.5546875 C-35.71979045 463.4897674 -60.6776955 465.53716777 -81.88671875 459.21875 C-98.62373117 453.60204988 -111.19617543 444.67648061 -123.40234375 432.08203125 C-132.38510353 422.88309296 -139.36746988 418.45904095 -152.45703125 417.87109375 C-155.89890283 417.83134927 -159.33551624 417.85603206 -162.77734375 417.89453125 C-186.79980982 418.00082535 -208.99943095 409.13284599 -226.22167969 392.46923828 C-241.68779937 376.82110934 -251.49811889 355.46705057 -251.8840332 333.29296875 C-251.8611884 329.74374652 -251.79811053 326.19668428 -251.71289062 322.6484375 C-251.57983034 311.98796024 -253.47564944 302.8082387 -260.78710938 294.66259766 C-263.01415238 292.44309884 -265.29098587 290.28945199 -267.58984375 288.14453125 C-275.06916211 280.90578015 -280.92456027 274.02766182 -285.83984375 264.83203125 C-286.40832031 263.79046875 -286.97679687 262.74890625 -287.5625 261.67578125 C-297.4975799 241.95208455 -299.54498027 216.9941795 -293.2265625 195.78515625 C-287.61001101 179.04858672 -278.68477809 166.47483524 -266.08984375 154.26953125 C-257.2461561 145.64221454 -252.49805096 138.66959391 -251.87890625 126.05859375 C-251.8361054 122.52324332 -251.86574549 118.99242337 -251.90234375 115.45703125 C-252.00124111 91.17772935 -243.34665525 68.88534677 -226.47705078 51.45019531 C-210.82892184 35.98407563 -189.47486307 26.17375611 -167.30078125 25.7878418 C-163.75155902 25.8106866 -160.20449678 25.87376447 -156.65625 25.95898438 C-145.99577274 26.09204466 -136.8160512 24.19622556 -128.67041016 16.88476562 C-126.45091134 14.65772262 -124.29726449 12.38088913 -122.15234375 10.08203125 C-114.91359265 2.60271289 -108.03547432 -3.25268527 -98.83984375 -8.16796875 C-97.79828125 -8.73644531 -96.75671875 -9.30492187 -95.68359375 -9.890625 C-65.26608032 -25.21231803 -26.67895775 -20.95417452 0 0 Z M-99.83984375 31.83203125 C-100.81442401 32.98516056 -101.77468694 34.15066803 -102.71484375 35.33203125 C-112.53487452 47.22671641 -127.97358708 54.35947169 -143.08203125 56.234375 C-148.69272457 56.69875211 -154.23489764 56.85084963 -159.86352539 56.74194336 C-176.11658548 56.46363087 -189.99525266 61.01285337 -202.5234375 71.5703125 C-212.84834975 81.65146628 -220.48751279 95.69219242 -220.91162109 110.30517578 C-220.91414766 113.08591635 -220.88491033 115.86416021 -220.83984375 118.64453125 C-220.53088148 137.80994892 -224.42974272 156.02390343 -238.19140625 170.265625 C-240.02133749 172.03887695 -241.86050317 173.80263108 -243.70703125 175.55859375 C-255.37358439 186.72049171 -264.38433097 199.55600381 -265.078125 216.23828125 C-265.48656451 234.96210532 -261.09847293 249.73413634 -248.0625 263.640625 C-246.21665326 265.46051959 -244.364253 267.09595846 -242.33984375 268.70703125 C-230.44515859 278.52706202 -223.31240331 293.96577458 -221.4375 309.07421875 C-220.97312289 314.68491207 -220.82102537 320.22708514 -220.92993164 325.85571289 C-221.20824413 342.10877298 -216.65902163 355.98744016 -206.1015625 368.515625 C-196.02040872 378.84053725 -181.97968258 386.47970029 -167.36669922 386.90380859 C-164.58595865 386.90633516 -161.80771479 386.87709783 -159.02734375 386.83203125 C-139.86192608 386.52306898 -121.64797157 390.42193022 -107.40625 404.18359375 C-105.63299805 406.01352499 -103.86924392 407.85269067 -102.11328125 409.69921875 C-90.95138329 421.36577189 -78.11587119 430.37651847 -61.43359375 431.0703125 C-42.70976968 431.47875201 -27.93773866 427.09066043 -14.03125 414.0546875 C-12.21135541 412.20884076 -10.57591654 410.3564405 -8.96484375 408.33203125 C0.85518702 396.43734609 16.29389958 389.30459081 31.40234375 387.4296875 C37.01303707 386.96531039 42.55521014 386.81321287 48.18383789 386.92211914 C64.43689798 387.20043163 78.31556516 382.65120913 90.84375 372.09375 C101.16866225 362.01259622 108.80782529 347.97187008 109.23193359 333.35888672 C109.23446016 330.57814615 109.20522283 327.79990229 109.16015625 325.01953125 C108.85119398 305.85411358 112.75005522 287.64015907 126.51171875 273.3984375 C128.34164999 271.62518555 130.18081567 269.86143142 132.02734375 268.10546875 C143.69389689 256.94357079 152.70464347 244.10805869 153.3984375 227.42578125 C153.80687701 208.70195718 149.41878543 193.92992616 136.3828125 180.0234375 C134.53696576 178.20354291 132.6845655 176.56810404 130.66015625 174.95703125 C118.76547109 165.13700048 111.63271581 149.69828792 109.7578125 134.58984375 C109.29343539 128.97915043 109.14133787 123.43697736 109.25024414 117.80834961 C109.52855663 101.55528952 104.97933413 87.67662234 94.421875 75.1484375 C84.34072122 64.82352525 70.29999508 57.18436221 55.68701172 56.76025391 C52.90627115 56.75772734 50.12802729 56.78696467 47.34765625 56.83203125 C28.18223858 57.14099352 9.96828407 53.24213228 -4.2734375 39.48046875 C-6.04668945 37.65053751 -7.81044358 35.81137183 -9.56640625 33.96484375 C-20.72830421 22.29829061 -33.56381631 13.28754403 -50.24609375 12.59375 C-70.19102221 12.15867344 -85.60971879 17.39898115 -99.83984375 31.83203125 Z " fill="#D0BCFF" transform="translate(295.83984375,18.16796875)"/>
  <animateTransform attributeName="transform" type="rotate" from="360" to="0" dur="8s" calcMode="linear" repeatCount="indefinite" />
</svg>
