<svg xmlns="http://www.w3.org/2000/svg" width="316" height="278" fill="none" viewBox="0 0 316 278"><path fill="#d0bcff" d="M271.57 122.2c-14.018-21.58-28.035-43.19-42.053-64.77-9.094-14.01-18.35-28.21-30.645-39.34-12.296-11.15-28.224-19.03-44.556-18-14.34.92-27.632 8.63-38.125 18.7S97.546 41.26 89.528 53.54C67.842 86.72 46.13 119.9 24.444 153.1 14.139 168.86 3.565 185.31.713 204.09c-3.444 22.69 5.839 45.8 22.305 60.89 17.219 15.78 45.12 14.5 66.08 10.18 22.977-4.75 45.443-13.68 68.877-13.65 20.072 0 39.471 6.6 59.004 11.4 19.506 4.77 40.466 7.71 59.3.61 23.38-8.79 40.169-33.79 39.712-59.45-.431-23.41-13.534-44.32-26.152-63.8-6.081-9.35-12.161-18.72-18.242-28.07z"/></svg>