<svg xmlns="http://www.w3.org/2000/svg" width="320" height="320" fill="none" viewBox="0 0 320 320"><path fill="#d0bcff" d="M156.818 10.16c.753-6.02 1.13-9.03 1.702-9.57a2.145 2.145 0 0 1 2.96 0c.572.54.949 3.55 1.702 9.57l9.578 76.58c.304 2.43.456 3.64.892 4.15.633.72 1.668.95 2.541.54.601-.28 1.232-1.33 2.493-3.43l39.729-66.04c3.124-5.19 4.686-7.79 5.427-8.05 1.078-.37 2.26.16 2.704 1.22.305.72-.569 3.63-2.317 9.44l-22.23 73.87c-.706 2.35-1.058 3.52-.863 4.15a2.17 2.17 0 0 0 2.102 1.54c.663-.01 1.663-.71 3.663-2.11l63.01-44.08c4.956-3.47 7.433-5.2 8.214-5.14a2.177 2.177 0 0 1 1.98 2.21c-.014.79-1.988 3.09-5.935 7.68l-50.194 58.4c-1.593 1.85-2.389 2.78-2.468 3.44-.115.96.414 1.88 1.299 2.26.609.27 1.806.03 4.199-.43l75.397-14.5c5.929-1.14 8.894-1.71 9.58-1.33.998.55 1.398 1.79.915 2.83-.332.71-3.064 2-8.528 4.58l-69.478 32.83c-2.206 1.04-3.308 1.56-3.648 2.13-.493.83-.382 1.89.272 2.6.45.49 1.636.77 4.009 1.32l74.747 17.59c5.878 1.38 8.818 2.07 9.29 2.7.687.91.552 2.21-.309 2.96-.593.51-3.61.58-9.646.7l-76.75 1.57c-2.436.05-3.654.08-4.195.46a2.19 2.19 0 0 0-.803 2.49c.214.63 1.184 1.37 3.126 2.85l61.173 46.62c4.81 3.67 7.216 5.51 7.393 6.27a2.18 2.18 0 0 1-1.48 2.58c-.749.23-3.531-.95-9.096-3.3l-70.749-29.95c-2.246-.95-3.369-1.43-4.019-1.3a2.18 2.18 0 0 0-1.739 1.94c-.059.66.528 1.74 1.703 3.88l37.021 67.62c2.911 5.31 4.367 7.97 4.219 8.75a2.175 2.175 0 0 1-2.395 1.75c-.778-.1-2.843-2.31-6.973-6.74l-52.517-56.3c-1.667-1.78-2.501-2.68-3.146-2.82a2.15 2.15 0 0 0-2.374 1.06c-.323.58-.22 1.8-.015 4.24l6.467 76.91c.509 6.05.763 9.07.315 9.72a2.16 2.16 0 0 1-2.895.62c-.672-.41-1.663-3.28-3.645-9.01l-25.204-72.9c-.8-2.32-1.2-3.47-1.73-3.87a2.16 2.16 0 0 0-2.598 0c-.53.4-.93 1.55-1.73 3.87l-25.204 72.9c-1.982 5.73-2.973 8.6-3.645 9.01-.976.59-2.242.32-2.895-.62-.448-.65-.194-3.67.315-9.72l6.467-76.91c.205-2.44.308-3.66-.015-4.24a2.146 2.146 0 0 0-2.373-1.06c-.646.14-1.48 1.04-3.147 2.82l-52.517 56.3c-4.13 4.43-6.195 6.64-6.973 6.74a2.175 2.175 0 0 1-2.395-1.75c-.148-.78 1.308-3.44 4.219-8.75l37.021-67.62c1.175-2.14 1.762-3.22 1.703-3.88a2.18 2.18 0 0 0-1.739-1.94c-.65-.13-1.773.35-4.019 1.3l-70.75 29.95c-5.564 2.35-8.346 3.53-9.095 3.3a2.18 2.18 0 0 1-1.48-2.58c.177-.76 2.583-2.6 7.393-6.27l61.173-46.62c1.942-1.48 2.912-2.22 3.126-2.85a2.19 2.19 0 0 0-.803-2.49c-.541-.38-1.76-.41-4.195-.46l-76.75-1.57c-6.036-.12-9.054-.19-9.646-.7a2.19 2.19 0 0 1-.309-2.96c.472-.63 3.412-1.32 9.29-2.7l74.747-17.59c2.373-.55 3.559-.83 4.01-1.32.653-.71.764-1.77.271-2.6-.34-.57-1.442-1.09-3.648-2.13L15.63 117.94c-5.464-2.58-8.196-3.87-8.528-4.58a2.18 2.18 0 0 1 .915-2.83c.686-.38 3.65.19 9.58 1.33l75.397 14.5c2.393.46 3.59.7 4.199.43a2.18 2.18 0 0 0 1.299-2.26c-.078-.66-.875-1.59-2.468-3.44L45.83 62.69c-3.947-4.59-5.92-6.89-5.935-7.68a2.18 2.18 0 0 1 1.98-2.21c.78-.06 3.258 1.67 8.214 5.14l63.01 44.08c2 1.4 3 2.1 3.663 2.11a2.17 2.17 0 0 0 2.102-1.54c.195-.63-.157-1.8-.863-4.15l-22.23-73.87c-1.748-5.81-2.622-8.72-2.317-9.44a2.17 2.17 0 0 1 2.704-1.22c.741.26 2.303 2.86 5.427 8.05L141.314 88c1.261 2.1 1.892 3.15 2.493 3.43.873.41 1.908.18 2.541-.54.436-.51.588-1.72.892-4.15z"/></svg>