<svg xmlns="http://www.w3.org/2000/svg" width="268" height="320" fill="none" viewBox="0 0 268 320"><path fill="#d0bcff" d="M191.442 276.481c-16.836 22.033-25.254 33.049-34.976 38.067a49.02 49.02 0 0 1-44.932 0c-9.722-5.018-18.14-16.034-34.976-38.067l-55.912-73.173c-10.24-13.402-15.36-20.102-17.895-27.276a48.1 48.1 0 0 1 0-32.064c2.535-7.174 7.655-13.874 17.895-27.276l55.912-73.173c16.836-22.033 25.254-33.05 34.976-38.067a49.02 49.02 0 0 1 44.932 0c9.722 5.018 18.14 16.034 34.976 38.068l55.912 73.172c10.24 13.402 15.36 20.102 17.895 27.276a48.1 48.1 0 0 1 0 32.064c-2.535 7.174-7.655 13.874-17.895 27.276z"/></svg>