<svg width="302" height="312" viewBox="0 0 302 312" fill="none" xmlns="http://www.w3.org/2000/svg">
<path d="M92.48 26.6316C110.64 13.4359 119.73 6.838 129.41 3.55802C143.41 -1.18601 158.59 -1.18601 172.59 3.55802C182.27 6.838 191.36 13.4359 209.52 26.6317L250.37 56.3046C261.16 64.1409 266.56 68.059 270.95 72.7627C277.31 79.5606 282.18 87.6027 285.27 96.381C287.41 102.454 288.38 109.048 290.34 122.236L297.9 173.237C301.33 196.373 303.05 207.941 301.32 218.367C298.81 233.448 291.24 247.227 279.86 257.431C271.99 264.486 261.3 269.245 239.93 278.763L191.52 300.326C178.62 306.07 172.17 308.941 165.55 310.409C155.96 312.53 146.04 312.53 136.45 310.409C129.83 308.941 123.38 306.07 110.48 300.326L62.07 278.763C40.7 269.245 30.01 264.486 22.14 257.431C10.76 247.227 3.19008 233.448 0.68008 218.367C-1.04992 207.941 0.670002 196.373 4.1 173.237L11.6601 122.236C13.6201 109.048 14.59 102.454 16.73 96.381C19.82 87.6027 24.6901 79.5606 31.0501 72.7627C35.4401 68.059 40.84 64.1409 51.63 56.3046L92.48 26.6316Z" fill="#D0BCFF"/>
</svg>
