<svg width="320" height="320" viewBox="0 0 320 320" fill="none" xmlns="http://www.w3.org/2000/svg">
<path d="M109.63 24.3699C125.24 12.2899 133.04 6.24994 141.38 3.24994C153.44 -1.08006 166.56 -1.08006 178.62 3.24994C186.96 6.24994 194.76 12.2899 210.37 24.3699L244.51 50.8L278.63 75.56C294.82 87.31 302.92 93.1899 308.33 100.57C316.15 111.26 320.27 124.39 319.99 137.82C319.79 147.11 316.58 156.82 310.14 176.23L296.74 216.66L284.38 258.08C278.57 277.52 275.67 287.24 270.6 294.8C263.26 305.74 252.59 313.78 240.32 317.63C231.84 320.3 222.06 320.14 202.5 319.83L160 319.16L117.5 319.83C97.94 320.14 88.16 320.3 79.68 317.63C67.41 313.78 56.74 305.74 49.4 294.8C44.33 287.24 41.43 277.52 35.62 258.08L23.26 216.66L9.85994 176.23C3.41994 156.82 0.209968 147.11 0.0099682 137.82C-0.270032 124.39 3.85 111.26 11.67 100.57C17.08 93.1899 25.18 87.31 41.37 75.56L75.49 50.8L109.63 24.3699Z" fill="#D0BCFF"/>
</svg>
