<svg xmlns="http://www.w3.org/2000/svg" width="320" height="320" fill="none" viewBox="0 0 320 320"><path fill="#d0bcff" d="M249.4 249.754c12.08-12.088 16.17-29.146 12.26-44.597 15.46 3.929 32.54-.156 44.64-12.255 18.27-18.266 18.27-47.882 0-66.148-12.03-12.027-28.98-16.135-44.36-12.324 3.43-15.144-.75-31.664-12.54-43.455-12.12-12.115-29.23-16.195-44.7-12.239 4.1-15.565.05-32.833-12.16-45.036-18.26-18.267-47.88-18.267-66.14 0-12.13 12.13-16.21 29.265-12.23 44.758-15.17-3.472-31.74.7-43.55 12.517-11.79 11.792-15.97 28.314-12.54 43.459-15.39-3.818-32.35.289-44.38 12.32-18.27 18.266-18.27 47.882 0 66.148 12.1 12.103 29.19 16.187 44.65 12.251-3.91 15.452.18 32.512 12.27 44.601 11.76 11.767 28.24 15.954 43.36 12.56-3.65 15.288.49 32.057 12.42 43.986 18.26 18.267 47.88 18.267 66.14 0 12-11.999 16.12-28.897 12.35-44.257 15.43 3.871 32.44-.226 44.51-12.289"/></svg>