<svg width="320" height="320" viewBox="0 0 320 320" fill="none" xmlns="http://www.w3.org/2000/svg">
<path d="M249.4 249.754C261.48 237.666 265.57 220.608 261.66 205.157C277.12 209.086 294.2 205.001 306.3 192.902C324.57 174.636 324.57 145.02 306.3 126.754C294.27 114.727 277.32 110.619 261.94 114.43C265.37 99.286 261.19 82.766 249.4 70.975C237.28 58.86 220.17 54.78 204.7 58.736C208.8 43.171 204.75 25.903 192.54 13.7C174.28 -4.56699 144.66 -4.56699 126.4 13.7C114.27 25.83 110.19 42.965 114.17 58.458C99 54.986 82.43 59.158 70.62 70.975C58.83 82.767 54.6499 99.289 58.0799 114.434C42.6899 110.616 25.7299 114.723 13.6999 126.754C-4.57006 145.02 -4.57006 174.636 13.6999 192.902C25.7999 205.005 42.89 209.089 58.35 205.153C54.44 220.605 58.53 237.665 70.62 249.754C82.38 261.521 98.86 265.708 113.98 262.314C110.33 277.602 114.47 294.371 126.4 306.3C144.66 324.567 174.28 324.567 192.54 306.3C204.54 294.301 208.66 277.403 204.89 262.043C220.32 265.914 237.33 261.817 249.4 249.754Z" fill="#D0BCFF"/>
</svg>
