<svg xmlns="http://www.w3.org/2000/svg" width="320" height="280" fill="none" viewBox="0 0 320 280"><path fill="#d0bcff" d="M319.98 138.106c-.26-21.532-16.25-38.773-35.74-38.485-1.07 0-2.13.09-3.18.217.82-.74 1.62-1.497 2.38-2.327 13.96-15.022 14.25-39.729.67-55.167-.8-.901-1.59-1.803-2.41-2.669-13.96-15.022-36.28-14.698-49.88.74-.75.847-1.43 1.731-2.1 2.633.11-1.154.18-2.327.2-3.517C230.19 17.998 214.61.307 195.14 0h-2.87C177.84 0 165.46 9.594 160 23.318 154.54 9.594 142.15 0 127.73 0h-2.87c-19.47.289-35.05 17.98-34.79 39.531 0 1.19.08 2.363.19 3.517a36 36 0 0 0-2.1-2.633c-13.58-15.438-35.92-15.762-49.88-.74-.81.884-1.63 1.768-2.41 2.669-13.58 15.438-13.29 40.127.67 55.167.77.83 1.56 1.587 2.38 2.327a30 30 0 0 0-3.18-.217C16.27 99.333.28 116.574 0 138.106v3.788c.26 21.533 16.26 38.773 35.74 38.485 1.08 0 2.14-.09 3.18-.217-.82.74-1.61 1.497-2.38 2.327-13.96 15.022-14.25 39.729-.67 55.167.8.901 1.6 1.803 2.41 2.669 13.96 15.022 36.28 14.698 49.88-.74.75-.847 1.44-1.731 2.1-2.633a41 41 0 0 0-.19 3.517c-.26 21.533 15.31 39.242 34.79 39.531h2.87c14.43 0 26.81-9.594 32.27-23.318C165.46 270.406 177.85 280 192.27 280h2.87c19.47-.289 35.05-17.98 34.79-39.531 0-1.19-.08-2.363-.19-3.517.66.902 1.35 1.786 2.1 2.633 13.58 15.438 35.92 15.762 49.88.74.81-.884 1.63-1.768 2.41-2.669 13.58-15.438 13.29-40.127-.67-55.167-.77-.83-1.56-1.587-2.38-2.327a30 30 0 0 0 3.18.217c19.47.288 35.48-16.934 35.74-38.485v-3.788z"/></svg>