<svg xmlns="http://www.w3.org/2000/svg" width="320" height="320" fill="none" viewBox="0 0 320 320"><path fill="#d0bcff" d="M136.7 9.85c.54-.53.81-.8 1.04-1.02 12.51-11.77 32.01-11.77 44.52 0 .23.22.5.49 1.04 1.02.33.31.49.47.64.62a32.48 32.48 0 0 0 30.09 8.06c.21-.05.43-.11.87-.22.73-.19 1.1-.28 1.41-.36 16.71-3.94 33.61 5.81 38.55 22.26.09.31.19.67.4 1.4.12.44.18.66.24.87a32.47 32.47 0 0 0 22.02 22.02c.21.06.43.12.87.24.73.21 1.09.31 1.4.4 16.45 4.94 26.2 21.84 22.26 38.55-.08.31-.17.68-.36 1.41-.11.44-.17.66-.22.87a32.48 32.48 0 0 0 8.06 30.09c.15.15.31.31.62.64.53.54.8.81 1.02 1.04 11.77 12.51 11.77 32.01 0 44.52-.22.23-.49.5-1.02 1.04-.31.33-.47.49-.62.64a32.48 32.48 0 0 0-8.06 30.09c.05.21.11.43.22.87.19.73.28 1.1.36 1.41 3.94 16.71-5.81 33.61-22.26 38.55-.31.09-.67.19-1.4.4-.44.12-.66.18-.87.24a32.47 32.47 0 0 0-22.02 22.02c-.06.21-.12.43-.24.87-.21.73-.31 1.09-.4 1.4-4.94 16.45-21.84 26.2-38.55 22.26-.31-.08-.68-.17-1.41-.36-.44-.11-.66-.17-.87-.22a32.48 32.48 0 0 0-30.09 8.06c-.15.15-.31.31-.64.62-.54.53-.81.8-1.04 1.02-12.51 11.77-32.01 11.77-44.52 0-.23-.22-.5-.49-1.04-1.02-.33-.31-.49-.47-.64-.62a32.48 32.48 0 0 0-30.09-8.06c-.21.05-.43.11-.87.22-.73.19-1.1.28-1.41.36-16.71 3.94-33.61-5.81-38.55-22.26-.09-.31-.19-.67-.4-1.4-.12-.44-.18-.66-.24-.87a32.47 32.47 0 0 0-22.02-22.02c-.21-.06-.43-.12-.87-.24-.73-.21-1.09-.31-1.4-.4-16.45-4.94-26.2-21.84-22.26-38.55.08-.31.17-.68.36-1.41.11-.44.17-.66.22-.87a32.48 32.48 0 0 0-8.06-30.09c-.15-.15-.31-.31-.62-.64-.53-.54-.8-.81-1.02-1.04-11.77-12.51-11.77-32.01 0-44.52.22-.23.49-.5 1.02-1.04.31-.33.47-.49.62-.64a32.48 32.48 0 0 0 8.06-30.09c-.05-.21-.11-.43-.22-.87-.19-.73-.28-1.1-.36-1.41-3.94-16.71 5.81-33.61 22.26-38.55.31-.09.67-.19 1.4-.4.44-.12.66-.18.87-.24A32.47 32.47 0 0 0 64.5 42.48c.06-.21.12-.43.24-.87.21-.73.31-1.09.4-1.4 4.94-16.45 21.84-26.2 38.55-22.26.31.08.68.17 1.41.36.44.11.66.17.87.22a32.48 32.48 0 0 0 30.09-8.06c.15-.15.31-.31.64-.62"/></svg>