<svg width="320" height="320" viewBox="0 0 320 320" fill="none" xmlns="http://www.w3.org/2000/svg">
<path d="M125.26 13.3798C126.99 11.9498 127.85 11.2398 128.64 10.6398C147.19 -3.55019 172.81 -3.55019 191.36 10.6398C192.15 11.2398 193.01 11.9498 194.74 13.3798C195.51 14.0098 195.89 14.3298 196.27 14.6398C205 21.5798 215.71 25.52 226.82 25.87C227.3 25.88 227.8 25.8898 228.79 25.8998C231.02 25.9298 232.14 25.9399 233.12 25.9899C256.36 27.1799 275.98 43.8199 281.17 66.7299C281.39 67.6999 281.6 68.8099 282.02 71.0199C282.2 72.0099 282.29 72.4999 282.39 72.9799C284.66 83.9799 290.36 93.9398 298.64 101.42C299.01 101.75 299.38 102.08 300.14 102.73C301.83 104.2 302.67 104.94 303.39 105.62C320.44 121.61 324.89 147.11 314.29 168.03C313.84 168.92 313.29 169.9 312.2 171.86C311.71 172.74 311.47 173.18 311.24 173.61C305.99 183.5 304.01 194.84 305.6 205.95C305.67 206.44 305.75 206.93 305.91 207.92C306.27 210.15 306.45 211.26 306.57 212.25C309.45 235.57 296.64 257.99 275.21 267.13C274.3 267.52 273.25 267.92 271.17 268.72C270.24 269.07 269.77 269.25 269.32 269.43C259 273.6 250.28 281 244.42 290.54C244.17 290.96 243.92 291.39 243.41 292.25C242.27 294.19 241.7 295.16 241.16 296C228.53 315.73 204.46 324.59 182.22 317.67C181.28 317.38 180.22 317.01 178.12 316.26C177.18 315.93 176.71 315.76 176.25 315.61C165.7 312.1 154.3 312.1 143.75 315.61C143.29 315.76 142.82 315.93 141.88 316.26C139.78 317.01 138.72 317.38 137.78 317.67C115.54 324.59 91.47 315.73 78.84 296C78.3 295.16 77.73 294.19 76.59 292.25C76.08 291.39 75.83 290.96 75.58 290.54C69.72 281 61.0001 273.6 50.6801 269.43C50.2301 269.25 49.76 269.07 48.83 268.72C46.75 267.92 45.7001 267.52 44.7901 267.13C23.3601 257.99 10.5501 235.57 13.4301 212.25C13.5501 211.26 13.73 210.15 14.09 207.92C14.25 206.93 14.3301 206.44 14.4001 205.95C15.9901 194.84 14.01 183.5 8.76004 173.61C8.53004 173.18 8.29008 172.74 7.80008 171.86C6.71008 169.9 6.15999 168.92 5.70999 168.03C-4.89001 147.11 -0.439983 121.61 16.61 105.62C17.33 104.94 18.17 104.2 19.86 102.73C20.62 102.08 20.99 101.75 21.36 101.42C29.64 93.9398 35.34 83.9799 37.61 72.9799C37.71 72.4999 37.8 72.0099 37.98 71.0199C38.4 68.8099 38.61 67.6999 38.83 66.7299C44.02 43.8199 63.64 27.1799 86.88 25.9899C87.86 25.9399 88.98 25.9298 91.21 25.8998C92.2 25.8898 92.7001 25.88 93.1801 25.87C104.29 25.52 115 21.5798 123.73 14.6398C124.11 14.3298 124.49 14.0098 125.26 13.3798Z" fill="#D0BCFF"/>
</svg>
