<svg width="320" height="320" viewBox="0 0 320 320" fill="none" xmlns="http://www.w3.org/2000/svg">
<path d="M136.7 9.85021C137.24 9.32021 137.51 9.05019 137.74 8.83019C150.25 -2.93981 169.75 -2.93981 182.26 8.83019C182.49 9.05019 182.76 9.32021 183.3 9.85021C183.63 10.1602 183.79 10.3201 183.94 10.4701C191.95 18.1101 203.28 21.1401 214.03 18.5301C214.24 18.4801 214.46 18.4202 214.9 18.3102C215.63 18.1202 216 18.0301 216.31 17.9501C233.02 14.0101 249.92 23.7601 254.86 40.2101C254.95 40.5201 255.05 40.8802 255.26 41.6102C255.38 42.0502 255.44 42.2701 255.5 42.4801C258.61 53.0901 266.91 61.3901 277.52 64.5001C277.73 64.5601 277.95 64.6201 278.39 64.7401C279.12 64.9501 279.48 65.05 279.79 65.14C296.24 70.08 305.99 86.98 302.05 103.69C301.97 104 301.88 104.37 301.69 105.1C301.58 105.54 301.52 105.76 301.47 105.97C298.86 116.72 301.89 128.05 309.53 136.06C309.68 136.21 309.84 136.37 310.15 136.7C310.68 137.24 310.95 137.51 311.17 137.74C322.94 150.25 322.94 169.75 311.17 182.26C310.95 182.49 310.68 182.76 310.15 183.3C309.84 183.63 309.68 183.79 309.53 183.94C301.89 191.95 298.86 203.28 301.47 214.03C301.52 214.24 301.58 214.46 301.69 214.9C301.88 215.63 301.97 216 302.05 216.31C305.99 233.02 296.24 249.92 279.79 254.86C279.48 254.95 279.12 255.05 278.39 255.26C277.95 255.38 277.73 255.44 277.52 255.5C266.91 258.61 258.61 266.91 255.5 277.52C255.44 277.73 255.38 277.95 255.26 278.39C255.05 279.12 254.95 279.48 254.86 279.79C249.92 296.24 233.02 305.99 216.31 302.05C216 301.97 215.63 301.88 214.9 301.69C214.46 301.58 214.24 301.52 214.03 301.47C203.28 298.86 191.95 301.89 183.94 309.53C183.79 309.68 183.63 309.84 183.3 310.15C182.76 310.68 182.49 310.95 182.26 311.17C169.75 322.94 150.25 322.94 137.74 311.17C137.51 310.95 137.24 310.68 136.7 310.15C136.37 309.84 136.21 309.68 136.06 309.53C128.05 301.89 116.72 298.86 105.97 301.47C105.76 301.52 105.54 301.58 105.1 301.69C104.37 301.88 104 301.97 103.69 302.05C86.9799 305.99 70.08 296.24 65.14 279.79C65.05 279.48 64.95 279.12 64.74 278.39C64.62 277.95 64.56 277.73 64.5 277.52C61.39 266.91 53.09 258.61 42.48 255.5C42.27 255.44 42.05 255.38 41.61 255.26C40.88 255.05 40.5199 254.95 40.2099 254.86C23.7599 249.92 14.0099 233.02 17.9499 216.31C18.0299 216 18.12 215.63 18.31 214.9C18.42 214.46 18.48 214.24 18.53 214.03C21.14 203.28 18.11 191.95 10.47 183.94C10.32 183.79 10.16 183.63 9.84996 183.3C9.31996 182.76 9.04994 182.49 8.82994 182.26C-2.94006 169.75 -2.94006 150.25 8.82994 137.74C9.04994 137.51 9.31996 137.24 9.84996 136.7C10.16 136.37 10.32 136.21 10.47 136.06C18.11 128.05 21.14 116.72 18.53 105.97C18.48 105.76 18.42 105.54 18.31 105.1C18.12 104.37 18.0299 104 17.9499 103.69C14.0099 86.98 23.7599 70.08 40.2099 65.14C40.5199 65.05 40.88 64.9501 41.61 64.7401C42.05 64.6201 42.27 64.5601 42.48 64.5001C53.09 61.3901 61.39 53.0901 64.5 42.4801C64.56 42.2701 64.62 42.0502 64.74 41.6102C64.95 40.8802 65.05 40.5201 65.14 40.2101C70.08 23.7601 86.9799 14.0101 103.69 17.9501C104 18.0301 104.37 18.1202 105.1 18.3102C105.54 18.4202 105.76 18.4801 105.97 18.5301C116.72 21.1401 128.05 18.1101 136.06 10.4701C136.21 10.3201 136.37 10.1602 136.7 9.85021Z" fill="#D0BCFF"/>
</svg>
