<svg width="296" height="316" viewBox="0 0 296 316" fill="none" xmlns="http://www.w3.org/2000/svg">
<path d="M92.1859 22.5702C123.276 -7.51981 172.724 -7.51981 203.814 22.5702C213.328 31.7702 224.984 38.4802 237.738 42.0902C279.419 53.8902 304.142 96.5901 293.552 138.47C290.312 151.29 290.312 164.71 293.552 177.53C304.142 219.41 279.419 262.11 237.738 273.91C224.984 277.52 213.328 284.23 203.814 293.43C172.724 323.52 123.276 323.52 92.1859 293.43C82.6719 284.23 71.0159 277.52 58.2619 273.91C16.5809 262.11 -8.14208 219.41 2.44792 177.53C5.68792 164.71 5.68792 151.29 2.44792 138.47C-8.14208 96.5901 16.5809 53.8902 58.2619 42.0902C71.0159 38.4802 82.6719 31.7702 92.1859 22.5702Z" fill="#D0BCFF"/>
</svg>
