<svg xmlns="http://www.w3.org/2000/svg" width="320" height="300" fill="none" viewBox="0 0 320 300"><path fill="#d0bcff" d="M15.715 80.54c2.574-24.58 3.861-36.87 8.588-46.562C31.142 19.945 43.077 9.11 57.628 3.723 67.683 0 79.933 0 104.432 0h123.705c29.627 0 44.441 0 55.75 4.854 16.374 7.028 28.833 20.995 34.04 38.166 3.596 11.85 2.04 26.71-1.073 56.44l-12.569 120c-2.574 24.58-3.861 36.87-8.588 46.56-6.839 14.03-18.774 24.87-33.325 30.26-10.055 3.72-22.305 3.72-46.804 3.72H91.863c-29.627 0-44.441 0-55.75-4.85-16.374-7.03-28.833-21-34.04-38.17-3.597-11.85-2.04-26.71 1.073-56.44z"/></svg>