<svg width="320" height="320" viewBox="0 0 320 320" fill="none" xmlns="http://www.w3.org/2000/svg">
<path d="M174.94 84.95C197.48 -28.315 122.55 -28.315 145.08 84.95C122.55 -28.315 53.327 0.35202 117.49 96.38C53.327 0.35202 0.35202 53.33 96.38 117.49C0.35202 53.33 -28.315 122.55 84.95 145.07C-28.315 122.54 -28.315 197.46 84.95 174.93C-28.315 197.46 0.36602 266.67 96.38 202.51C0.36602 266.67 53.34 319.65 117.49 223.62C53.327 319.63 122.55 348.3 145.07 235.05C122.54 348.32 197.46 348.32 174.93 235.05C197.46 348.32 266.67 319.63 202.51 223.62C266.67 319.63 319.65 266.66 223.62 202.51C319.63 266.67 348.3 197.45 235.05 174.93C348.32 197.46 348.32 122.54 235.05 145.07C348.32 122.54 319.63 53.33 223.62 117.49C319.63 53.33 266.66 0.35202 202.51 96.38C266.67 0.36602 197.45 -28.302 174.93 84.95H174.94Z" fill="#D0BCFF"/>
</svg>
