<svg width="320" height="320" viewBox="0 0 320 320" fill="none" xmlns="http://www.w3.org/2000/svg">
<path d="M145.15 7.90401C151.98 -2.63499 168.02 -2.63499 174.85 7.90401L191.24 33.165C195.73 40.093 204.8 42.91 212.69 39.83L241.47 28.603C253.48 23.92 266.45 32.932 265.51 45.3L263.24 74.95C262.61 83.08 268.21 90.45 276.49 92.4L306.68 99.49C319.27 102.45 324.23 117.03 315.86 126.51L295.8 149.21C290.3 155.44 290.3 164.56 295.8 170.79L315.86 193.49C324.23 202.97 319.27 217.55 306.68 220.51L276.49 227.6C268.21 229.55 262.61 236.92 263.24 245.05L265.51 274.7C266.45 287.07 253.48 296.08 241.47 291.4L212.69 280.17C204.8 277.09 195.73 279.91 191.24 286.84L174.85 312.1C168.02 322.63 151.98 322.63 145.15 312.1L128.76 286.84C124.27 279.91 115.2 277.09 107.31 280.17L78.53 291.4C66.52 296.08 53.55 287.07 54.49 274.7L56.76 245.05C57.39 236.92 51.79 229.55 43.51 227.6L13.32 220.51C0.729964 217.55 -4.22997 202.97 4.14003 193.49L24.2 170.79C29.7 164.56 29.7 155.44 24.2 149.21L4.14003 126.51C-4.22997 117.03 0.729964 102.45 13.32 99.49L43.51 92.4C51.79 90.45 57.39 83.08 56.76 74.95L54.49 45.3C53.55 32.932 66.52 23.92 78.53 28.603L107.31 39.83C115.2 42.91 124.27 40.093 128.76 33.165L145.15 7.90401Z" fill="#D0BCFF"/>
</svg>
