<svg xmlns="http://www.w3.org/2000/svg" width="480" height="480" fill="none">
  <path fill="#D0BCFF" d="M295.84 18.168c4.163 3.594 7.898 7.636 11.723 11.582 8.982 9.199 15.965 13.623 29.054 14.21 3.442.04 6.879.016 10.32-.023 24.023-.106 46.223 8.762 63.445 25.426 15.466 15.648 25.276 37.002 25.662 59.176-.023 3.55-.086 7.096-.171 10.645-.133 10.66 1.763 19.84 9.074 27.985 2.227 2.22 4.504 4.374 6.803 6.518 7.48 7.24 13.335 14.117 18.25 23.313l1.723 3.156c9.935 19.724 11.982 44.682 5.664 65.89-5.617 16.737-14.542 29.311-27.137 41.517-8.844 8.627-13.592 15.6-14.21 28.21-.044 3.536-.014 7.067.022 10.602.1 24.28-8.555 46.572-25.425 64.007-15.648 15.466-37.002 25.276-59.176 25.662-3.55-.023-7.096-.086-10.645-.171-10.66-.133-19.84 1.763-27.985 9.074-2.22 2.227-4.374 4.504-6.519 6.803-7.238 7.48-14.116 13.335-23.312 18.25l-3.156 1.723c-19.724 9.935-44.682 11.982-65.89 5.664-16.738-5.617-29.31-14.543-41.517-27.137-8.982-9.199-15.965-13.623-29.054-14.21-3.442-.04-6.879-.016-10.32.022-24.023.107-46.223-8.761-63.445-25.425-15.466-15.648-25.276-37.002-25.662-59.176.023-3.55.086-7.096.171-10.645.133-10.66-1.763-19.84-9.074-27.985-2.227-2.22-4.504-4.374-6.803-6.519C20.77 299.075 14.915 292.197 10 283l-1.723-3.156c-9.935-19.724-11.982-44.682-5.664-65.89 5.617-16.737 14.542-29.311 27.137-41.517 8.844-8.627 13.592-15.6 14.21-28.21.044-3.536.014-7.067-.023-10.602-.098-24.28 8.556-46.572 25.426-64.007 15.648-15.466 37.002-25.276 59.176-25.662 3.55.023 7.096.086 10.645.171 10.66.133 19.84-1.763 27.985-9.074 2.22-2.227 4.374-4.504 6.518-6.803C180.928 20.77 187.804 14.915 197 10l3.156-1.723c30.418-15.321 69.005-11.063 95.684 9.891ZM196 50a153.61 153.61 0 0 0-2.875 3.5c-9.82 11.895-25.259 19.027-40.367 20.902-5.61.465-11.153.617-16.782.508-16.253-.278-30.131 4.27-42.66 14.828-10.325 10.081-17.964 24.122-18.388 38.735-.002 2.78.027 5.56.072 8.34.309 19.165-3.59 37.379-17.352 51.62a812.786 812.786 0 0 1-5.515 5.294c-11.667 11.161-20.677 23.997-21.371 40.68-.409 18.723 3.98 33.495 17.015 47.402a70.934 70.934 0 0 0 5.723 5.066c11.895 9.82 19.027 25.259 20.902 40.367.465 5.61.617 11.153.508 16.782-.278 16.253 4.27 30.131 14.828 42.66 10.081 10.325 24.122 17.964 38.735 18.388 2.78.002 5.56-.027 8.34-.072 19.165-.309 37.379 3.59 51.62 17.352 1.774 1.83 3.538 3.669 5.294 5.515 11.161 11.667 23.997 20.677 40.68 21.371 18.723.409 33.495-3.98 47.402-17.015a70.934 70.934 0 0 0 5.066-5.723c9.82-11.895 25.259-19.027 40.367-20.902 5.61-.465 11.153-.617 16.782-.508 16.253.278 30.131-4.27 42.66-14.828 10.325-10.081 17.964-24.122 18.388-38.735a487.11 487.11 0 0 0-.072-8.34c-.309-19.165 3.59-37.379 17.352-51.62 1.83-1.774 3.669-3.538 5.515-5.294 11.667-11.161 20.677-23.997 21.371-40.68.409-18.723-3.98-33.495-17.015-47.402a70.934 70.934 0 0 0-5.723-5.066c-11.895-9.82-19.027-25.259-20.902-40.367a163.923 163.923 0 0 1-.508-16.782c.278-16.253-4.27-30.131-14.828-42.66-10.081-10.325-24.122-17.964-38.735-18.388a487.11 487.11 0 0 0-8.34.072c-19.165.309-37.379-3.59-51.62-17.352a812.786 812.786 0 0 1-5.294-5.515c-11.161-11.667-23.997-20.677-40.68-21.371C225.65 30.327 210.23 35.567 196 50Z"/>
  <animateTransform attributeName="transform" calcMode="linear" dur="8s" from="360" repeatCount="indefinite" to="0" type="rotate"/>
</svg>