<svg width="316" height="278" viewBox="0 0 316 278" fill="none" xmlns="http://www.w3.org/2000/svg">
<path d="M271.57 122.2C257.552 100.62 243.535 79.01 229.517 57.43C220.423 43.42 211.167 29.2202 198.872 18.0902C186.576 6.94018 170.648 -0.939823 154.316 0.0901773C139.976 1.01018 126.684 8.72013 116.191 18.7901C105.698 28.8601 97.546 41.2601 89.528 53.5401C67.842 86.7201 46.13 119.9 24.444 153.1C14.139 168.86 3.56499 185.31 0.712987 204.09C-2.73101 226.78 6.55198 249.89 23.018 264.98C40.237 280.76 68.138 279.48 89.098 275.16C112.075 270.41 134.541 261.48 157.975 261.51C178.047 261.51 197.446 268.11 216.979 272.91C236.485 277.68 257.445 280.62 276.279 273.52C299.659 264.73 316.448 239.73 315.991 214.07C315.56 190.66 302.457 169.75 289.839 150.27C283.758 140.92 277.678 131.55 271.597 122.2H271.57Z" fill="#D0BCFF"/>
</svg>
