<svg width="320" height="320" viewBox="0 0 320 320" fill="none" xmlns="http://www.w3.org/2000/svg">
<path d="M157.39 2.55C158.13 1.23 158.49 0.58 158.94 0.3C159.59 -0.1 160.41 -0.1 161.06 0.3C161.51 0.58 161.87 1.23 162.61 2.55L187.87 47.6999C188.32 48.5099 188.55 48.92 188.86 49.16C189.3 49.52 189.87 49.6699 190.43 49.5799C190.82 49.5199 191.22 49.29 192.01 48.81L236.47 22.3399C237.76 21.5699 238.41 21.18 238.93 21.17C239.7 21.14 240.4 21.5499 240.77 22.2199C241.02 22.6899 241.01 23.4399 240.99 24.9499L240.29 76.68C240.27 77.61 240.27 78.0699 240.41 78.4399C240.61 78.9699 241.03 79.3899 241.56 79.5899C241.93 79.7299 242.39 79.7299 243.32 79.7099L295.05 79.01C296.56 78.99 297.31 78.9799 297.78 79.2299C298.45 79.5999 298.86 80.2999 298.83 81.0699C298.82 81.5899 298.43 82.24 297.66 83.53L271.19 127.99C270.71 128.78 270.48 129.18 270.42 129.57C270.33 130.13 270.48 130.7 270.84 131.14C271.08 131.45 271.49 131.68 272.3 132.13L317.45 157.39C318.77 158.13 319.42 158.49 319.7 158.94C320.1 159.59 320.1 160.41 319.7 161.06C319.42 161.51 318.77 161.87 317.45 162.61L272.3 187.87C271.49 188.32 271.08 188.55 270.84 188.86C270.48 189.3 270.33 189.87 270.42 190.43C270.48 190.82 270.71 191.22 271.19 192.01L297.66 236.47C298.43 237.76 298.82 238.41 298.83 238.93C298.86 239.7 298.45 240.4 297.78 240.77C297.31 241.02 296.56 241.01 295.05 240.99L243.32 240.29C242.39 240.27 241.93 240.27 241.56 240.41C241.03 240.61 240.61 241.03 240.41 241.56C240.27 241.93 240.27 242.39 240.29 243.32L240.99 295.05C241.01 296.56 241.02 297.31 240.77 297.78C240.4 298.45 239.7 298.86 238.93 298.83C238.41 298.82 237.76 298.43 236.47 297.66L192.01 271.19C191.22 270.71 190.82 270.48 190.43 270.42C189.87 270.33 189.3 270.48 188.86 270.84C188.55 271.08 188.32 271.49 187.87 272.3L162.61 317.45C161.87 318.77 161.51 319.42 161.06 319.7C160.41 320.1 159.59 320.1 158.94 319.7C158.49 319.42 158.13 318.77 157.39 317.45L132.13 272.3C131.68 271.49 131.45 271.08 131.14 270.84C130.7 270.48 130.13 270.33 129.57 270.42C129.18 270.48 128.78 270.71 127.99 271.19L83.53 297.66C82.24 298.43 81.5899 298.82 81.0699 298.83C80.2999 298.86 79.5999 298.45 79.2299 297.78C78.9799 297.31 78.99 296.56 79.01 295.05L79.7099 243.32C79.7299 242.39 79.7299 241.93 79.5899 241.56C79.3899 241.03 78.9699 240.61 78.4399 240.41C78.0699 240.27 77.61 240.27 76.68 240.29L24.9499 240.99C23.4399 241.01 22.6899 241.02 22.2199 240.77C21.5499 240.4 21.14 239.7 21.17 238.93C21.18 238.41 21.5699 237.76 22.3399 236.47L48.81 192.01C49.29 191.22 49.5199 190.82 49.5799 190.43C49.6699 189.87 49.52 189.3 49.16 188.86C48.92 188.55 48.5099 188.32 47.6999 187.87L2.55 162.61C1.23 161.87 0.58 161.51 0.3 161.06C-0.1 160.41 -0.1 159.59 0.3 158.94C0.58 158.49 1.23 158.13 2.55 157.39L47.6999 132.13C48.5099 131.68 48.92 131.45 49.16 131.14C49.52 130.7 49.6699 130.13 49.5799 129.57C49.5199 129.18 49.29 128.78 48.81 127.99L22.3399 83.53C21.5699 82.24 21.18 81.5899 21.17 81.0699C21.14 80.2999 21.5499 79.5999 22.2199 79.2299C22.6899 78.9799 23.4399 78.99 24.9499 79.01L76.68 79.7099C77.61 79.7299 78.0699 79.7299 78.4399 79.5899C78.9699 79.3899 79.3899 78.9699 79.5899 78.4399C79.7299 78.0699 79.7299 77.61 79.7099 76.68L79.01 24.9499C78.99 23.4399 78.9799 22.6899 79.2299 22.2199C79.5999 21.5499 80.2999 21.14 81.0699 21.17C81.5899 21.18 82.24 21.5699 83.53 22.3399L127.99 48.81C128.78 49.29 129.18 49.5199 129.57 49.5799C130.13 49.6699 130.7 49.52 131.14 49.16C131.45 48.92 131.68 48.5099 132.13 47.6999L157.39 2.55Z" fill="#D0BCFF"/>
</svg>
