<svg width="280" height="280" viewBox="0 0 280 280" fill="none" xmlns="http://www.w3.org/2000/svg">
<path d="M0 44.2105C0 42.6506 1.95317e-05 41.8706 0.0200195 41.2111C0.71702 18.7571 18.757 0.7174 41.211 0.0205002C41.871 1.82539e-07 42.651 0 44.211 0C52.53 0 56.69 -4.76837e-07 60.208 0.1092C179.96 3.8259 276.17 100.038 279.89 219.792C280 223.31 280 227.47 280 235.789C280 237.349 280 238.129 279.98 238.789C279.28 261.243 261.24 279.283 238.79 279.98C238.13 280 237.35 280 235.79 280H62.945C43.927 280 34.417 280 26.874 277.013C15.955 272.69 7.31 264.045 2.987 253.126C-4.76837e-07 245.583 0 236.073 0 217.055V44.2105Z" fill="#D0BCFF"/>
</svg>
