<svg width="304" height="304" viewBox="0 0 304 304" fill="none" xmlns="http://www.w3.org/2000/svg">
<path d="M0 144.762C0 64.812 68.0527 0 152 0C235.947 0 304 64.812 304 144.762V246.095C304 278.075 276.779 304 243.2 304C233.247 304 223.853 301.722 215.56 297.685C211.335 295.627 207.119 293.372 202.885 291.107C187.986 283.136 172.866 275.048 156.327 275.048H147.673C131.134 275.048 116.014 283.136 101.115 291.107C96.881 293.372 92.665 295.627 88.44 297.685C80.1472 301.722 70.7529 304 60.8 304C27.2211 304 0 278.075 0 246.095V144.762Z" fill="#D0BCFF"/>
</svg>
