<svg xmlns="http://www.w3.org/2000/svg" width="320" height="286" fill="none" viewBox="0 0 320 286"><path fill="#d0bcff" d="M251.1.13c-21.661 0-40.987 10.17-53.619 26.07L160 67.51v-.13l-37.481-41.32C109.887 10.17 90.561 0 68.9 0 30.848 0 0 31.37 0 70.06c0 34 28.375 59.41 48.919 83.82 20.47 24.33 40.937 48.64 61.404 72.96l45.949 54.6c1.244 1.47 2.484 2.95 3.728 4.43v.13c1.244-1.48 2.484-2.95 3.728-4.43 15.315-18.2 30.63-36.39 45.949-54.59l61.404-72.96C291.625 129.61 320 104.2 320 70.19 320 31.5 289.152.13 251.1.13"/></svg>