<svg width="320" height="286" viewBox="0 0 320 286" fill="none" xmlns="http://www.w3.org/2000/svg">
<path d="M251.1 0.130005C229.439 0.130005 210.113 10.3 197.481 26.2L160 67.51V67.38L122.519 26.0601C109.887 10.1701 90.561 0 68.9 0C30.848 0 0 31.3701 0 70.0601C0 104.06 28.375 129.47 48.919 153.88C69.389 178.21 89.856 202.52 110.323 226.84L156.272 281.44C157.516 282.91 158.756 284.39 160 285.87V286C161.244 284.52 162.484 283.05 163.728 281.57C179.043 263.37 194.358 245.18 209.677 226.98C230.144 202.66 250.614 178.34 271.081 154.02C291.625 129.61 320 104.2 320 70.1899C320 31.4999 289.152 0.130005 251.1 0.130005Z" fill="#D0BCFF"/>
</svg>
