<svg xmlns="http://www.w3.org/2000/svg" width="296" height="316" fill="none" viewBox="0 0 296 316"><path fill="#d0bcff" d="M92.186 22.57c31.09-30.09 80.538-30.09 111.628 0a80.24 80.24 0 0 0 33.924 19.52c41.681 11.8 66.404 54.5 55.814 96.38a79.7 79.7 0 0 0 0 39.06c10.59 41.88-14.133 84.58-55.814 96.38a80.24 80.24 0 0 0-33.924 19.52c-31.09 30.09-80.538 30.09-111.628 0a80.24 80.24 0 0 0-33.924-19.52c-41.681-11.8-66.404-54.5-55.814-96.38a79.7 79.7 0 0 0 0-39.06C-8.142 96.59 16.58 53.89 58.262 42.09a80.24 80.24 0 0 0 33.924-19.52"/></svg>