<svg xmlns="http://www.w3.org/2000/svg" width="320" height="316" fill="none" viewBox="0 0 320 316"><path fill="#d0bcff" d="M112.67 19.78c3.573-3.14 5.359-4.71 7.001-5.98 23.754-18.4 56.904-18.4 80.658 0 1.642 1.27 3.428 2.84 7.001 5.98 1.196 1.06 1.794 1.58 2.394 2.09a66 66 0 0 0 29.196 14.09c.768.16 1.551.3 3.118.58 4.681.84 7.021 1.25 9.037 1.75 29.159 7.14 49.827 33.12 50.289 63.2.032 2.08-.081 4.46-.307 9.22-.075 1.6-.113 2.39-.132 3.18a66.24 66.24 0 0 0 7.211 31.66c.357.7.736 1.4 1.494 2.81 2.264 4.19 3.396 6.28 4.267 8.17 12.606 27.3 5.23 59.7-17.948 78.81-1.602 1.33-3.529 2.72-7.383 5.51-1.29.94-1.936 1.4-2.559 1.88a66.1 66.1 0 0 0-20.204 25.39c-.323.72-.634 1.45-1.256 2.92-1.857 4.39-2.786 6.58-3.715 8.44-13.439 26.9-43.306 41.32-72.67 35.08-2.03-.44-4.32-1.08-8.9-2.36-1.534-.42-2.3-.64-3.059-.83a65.84 65.84 0 0 0-32.406 0c-.759.19-1.525.41-3.059.83-4.58 1.28-6.87 1.92-8.9 2.36-29.364 6.24-59.23-8.18-72.67-35.08-.93-1.86-1.858-4.05-3.715-8.44-.622-1.47-.933-2.2-1.256-2.92a66.14 66.14 0 0 0-20.204-25.39c-.623-.48-1.269-.94-2.559-1.88-3.854-2.79-5.78-4.18-7.383-5.51C.873 216.23-6.503 183.83 6.103 156.53c.871-1.89 2.003-3.98 4.267-8.17.758-1.41 1.137-2.11 1.494-2.81a66.2 66.2 0 0 0 7.21-31.66c-.018-.79-.056-1.58-.131-3.18-.226-4.76-.34-7.14-.307-9.22.462-30.08 21.13-56.06 50.29-63.2 2.015-.5 4.355-.91 9.036-1.75 1.567-.28 2.35-.42 3.117-.58a66 66 0 0 0 29.197-14.09c.6-.51 1.198-1.03 2.394-2.09"/></svg>