<svg xmlns="http://www.w3.org/2000/svg" width="320" height="320" fill="none" viewBox="0 0 320 320"><path fill="#d0bcff" d="M125.26 13.38c1.73-1.43 2.59-2.14 3.38-2.74a51.525 51.525 0 0 1 62.72 0c.79.6 1.65 1.31 3.38 2.74.77.63 1.15.95 1.53 1.26a51.7 51.7 0 0 0 30.55 11.23c.48.01.98.02 1.97.03 2.23.03 3.35.04 4.33.09 23.24 1.19 42.86 17.83 48.05 40.74.22.97.43 2.08.85 4.29.18.99.27 1.48.37 1.96 2.27 11 7.97 20.96 16.25 28.44.37.33.74.66 1.5 1.31 1.69 1.47 2.53 2.21 3.25 2.89 17.05 15.99 21.5 41.49 10.9 62.41-.45.89-1 1.87-2.09 3.83-.49.88-.73 1.32-.96 1.75a53 53 0 0 0-5.64 32.34c.07.49.15.98.31 1.97.36 2.23.54 3.34.66 4.33 2.88 23.32-9.93 45.74-31.36 54.88-.91.39-1.96.79-4.04 1.59-.93.35-1.4.53-1.85.71-10.32 4.17-19.04 11.57-24.9 21.11-.25.42-.5.85-1.01 1.71-1.14 1.94-1.71 2.91-2.25 3.75-12.63 19.73-36.7 28.59-58.94 21.67-.94-.29-2-.66-4.1-1.41-.94-.33-1.41-.5-1.87-.65a51.47 51.47 0 0 0-32.5 0c-.46.15-.93.32-1.87.65-2.1.75-3.16 1.12-4.1 1.41-22.24 6.92-46.31-1.94-58.94-21.67-.54-.84-1.11-1.81-2.25-3.75-.51-.86-.76-1.29-1.01-1.71C69.72 281 61 273.6 50.68 269.43c-.45-.18-.92-.36-1.85-.71-2.08-.8-3.13-1.2-4.04-1.59-21.43-9.14-34.24-31.56-31.36-54.88.12-.99.3-2.1.66-4.33.16-.99.24-1.48.31-1.97a53 53 0 0 0-5.64-32.34c-.23-.43-.47-.87-.96-1.75-1.09-1.96-1.64-2.94-2.09-3.83-10.6-20.92-6.15-46.42 10.9-62.41.72-.68 1.56-1.42 3.25-2.89.76-.65 1.13-.98 1.5-1.31a52.66 52.66 0 0 0 16.25-28.44c.1-.48.19-.97.37-1.96.42-2.21.63-3.32.85-4.29 5.19-22.91 24.81-39.55 48.05-40.74.98-.05 2.1-.06 4.33-.09.99-.01 1.49-.02 1.97-.03a51.7 51.7 0 0 0 30.55-11.23c.38-.31.76-.63 1.53-1.26"/></svg>