<svg xmlns="http://www.w3.org/2000/svg" width="320" height="320" fill="none" viewBox="0 0 320 320"><path fill="#d0bcff" d="M174.94 84.95c22.54-113.265-52.39-113.265-29.86 0C122.55-28.315 53.327.352 117.49 96.38 53.327.352.352 53.33 96.38 117.49.352 53.33-28.315 122.55 84.95 145.07c-113.265-22.53-113.265 52.39 0 29.86-113.265 22.53-84.584 91.74 11.43 27.58-96.014 64.16-43.04 117.14 21.11 21.11-64.163 96.01 5.06 124.68 27.58 11.43-22.53 113.27 52.39 113.27 29.86 0 22.53 113.27 91.74 84.58 27.58-11.43 64.16 96.01 117.14 43.04 21.11-21.11 96.01 64.16 124.68-5.06 11.43-27.58 113.27 22.53 113.27-52.39 0-29.86 113.27-22.53 84.58-91.74-11.43-27.58C319.63 53.33 266.66.352 202.51 96.38c64.16-96.014-5.06-124.682-27.58-11.43z"/></svg>