<svg width="340" height="340" viewBox="0 0 340 340" fill="none" xmlns="http://www.w3.org/2000/svg">
<path d="M261.856 41.24C272.431 41.96 277.718 42.32 281.991 44.18C288.175 46.89 293.111 51.83 295.816 58.01C297.685 62.28 298.044 67.57 298.762 78.14L300.402 102.27C300.693 106.55 300.838 108.69 301.303 110.73C301.975 113.68 303.142 116.5 304.754 119.06C305.869 120.84 307.279 122.45 310.097 125.68L326.001 143.9C332.97 151.89 336.455 155.88 338.155 160.22C340.615 166.51 340.615 173.49 338.155 179.78C336.455 184.12 332.97 188.11 326.001 196.1L310.097 214.32C307.279 217.55 305.869 219.16 304.754 220.94C303.142 223.5 301.975 226.32 301.303 229.27C300.838 231.31 300.693 233.45 300.402 237.73L298.762 261.86C298.044 272.43 297.685 277.72 295.816 281.99C293.111 288.17 288.175 293.11 281.991 295.82C277.718 297.68 272.431 298.04 261.856 298.76L237.725 300.4C233.448 300.69 231.31 300.84 229.267 301.3C226.316 301.97 223.499 303.14 220.937 304.75C219.164 305.87 217.549 307.28 214.319 310.1L196.097 326C188.111 332.97 184.119 336.45 179.775 338.15C173.491 340.62 166.509 340.62 160.225 338.15C155.881 336.45 151.889 332.97 143.903 326L125.681 310.1C122.451 307.28 120.836 305.87 119.063 304.75C116.501 303.14 113.684 301.97 110.733 301.3C108.69 300.84 106.552 300.69 102.275 300.4L78.1438 298.76C67.5694 298.04 62.2822 297.68 58.0088 295.82C51.8252 293.11 46.8887 288.17 44.1844 281.99C42.3154 277.72 41.9561 272.43 41.2375 261.86L39.5977 237.73C39.3071 233.45 39.1618 231.31 38.6969 229.27C38.0251 226.32 36.8584 223.5 35.2463 220.94C34.1306 219.16 32.7213 217.55 29.9027 214.32L13.999 196.1C7.02996 188.11 3.54542 184.12 1.84516 179.78C-0.615054 173.49 -0.615053 166.51 1.84516 160.22C3.54542 155.88 7.02996 151.89 13.999 143.9L29.9027 125.68C32.7213 122.45 34.1306 120.84 35.2463 119.06C36.8584 116.5 38.0251 113.68 38.6969 110.73C39.1618 108.69 39.3071 106.55 39.5977 102.27L41.2375 78.14C41.9561 67.57 42.3154 62.28 44.1844 58.01C46.8887 51.83 51.8252 46.89 58.0088 44.18C62.2823 42.32 67.5694 41.96 78.1438 41.24L102.275 39.5999C106.552 39.3099 108.69 39.1599 110.733 38.6999C113.684 38.0299 116.501 36.86 119.063 35.25C120.836 34.13 122.451 32.72 125.681 29.9L143.903 14C151.889 7.02996 155.881 3.54994 160.225 1.84994C166.509 -0.620064 173.491 -0.620064 179.775 1.84994C184.119 3.54994 188.111 7.02996 196.097 14L214.319 29.9C217.549 32.72 219.164 34.13 220.937 35.25C223.499 36.86 226.316 38.0299 229.267 38.6999C231.31 39.1599 233.448 39.3099 237.725 39.5999L261.856 41.24Z" fill="#D0BCFF"/>
</svg>
