<svg width="320" height="320" viewBox="0 0 320 320" fill="none" xmlns="http://www.w3.org/2000/svg">
<path d="M136.72 13.1899C147.26 -4.40006 172.74 -4.40006 183.28 13.1899L195.12 32.96C201.27 43.21 213.4 48.24 224.99 45.33L247.35 39.73C267.24 34.75 285.25 52.76 280.27 72.65L274.67 95.01C271.76 106.6 276.79 118.73 287.04 124.88L306.81 136.72C324.4 147.26 324.4 172.74 306.81 183.28L287.04 195.12C276.79 201.27 271.76 213.4 274.67 224.99L280.27 247.35C285.25 267.24 267.24 285.25 247.35 280.27L224.99 274.67C213.4 271.76 201.27 276.79 195.12 287.04L183.28 306.81C172.74 324.4 147.26 324.4 136.72 306.81L124.88 287.04C118.73 276.79 106.6 271.76 95.01 274.67L72.646 280.27C52.763 285.25 34.747 267.24 39.729 247.35L45.333 224.99C48.238 213.4 43.214 201.27 32.96 195.12L13.187 183.28C-4.39599 172.74 -4.39599 147.26 13.187 136.72L32.96 124.88C43.214 118.73 48.238 106.6 45.333 95.01L39.729 72.65C34.747 52.76 52.763 34.75 72.645 39.73L95.01 45.33C106.6 48.24 118.73 43.21 124.88 32.96L136.72 13.1899Z" fill="#D0BCFF"/>
</svg>
