<svg xmlns="http://www.w3.org/2000/svg" viewBox="610 1101 1220 75">
<path fill="#D0BCFF" d="M1870.425,1173.746c-29.448,0-58.665-7.477-84.493-21.622c-0.03-0.016-0.061-0.032-0.09-0.049
c-43.555-23.82-95.546-23.809-139.091,0.039c-0.037,0.021-0.075,0.042-0.113,0.062c-25.803,14.109-54.984,21.567-84.394,21.568
c-29.449,0-58.667-7.478-84.495-21.623c-43.554-23.852-95.539-23.865-139.089-0.052c-0.03,0.018-0.062,0.034-0.092,0.051
c-25.83,14.146-55.048,21.623-84.497,21.623c-29.423,0-58.613-7.463-84.425-21.584c-0.025-0.014-0.052-0.028-0.077-0.042
c-43.572-23.863-95.596-23.862-139.164-0.001c-0.028,0.016-0.057,0.031-0.085,0.046c-25.809,14.117-55.001,21.581-84.418,21.581
c-0.002,0,0,0-0.001,0c-29.45-0.001-58.669-7.479-84.498-21.625c-43.534-23.845-95.513-23.863-139.063-0.058
c-0.036,0.021-0.072,0.04-0.108,0.06c-25.829,14.146-55.047,21.623-84.496,21.623c-29.398,0-58.566-7.451-84.362-21.551
c-0.048-0.024-0.095-0.05-0.142-0.075c-43.568-23.863-95.593-23.863-139.163,0c-0.027,0.015-0.054,0.028-0.081,0.043
c-25.811,14.12-55.001,21.583-84.421,21.583c-29.45,0-58.668-7.478-84.497-21.624c-7.521-4.118-10.278-13.554-6.159-21.074
s13.554-10.277,21.074-6.158c43.57,23.862,95.593,23.864,139.163,0c0.033-0.018,0.065-0.035,0.098-0.053
c25.807-14.114,54.991-21.573,84.406-21.573c29.398,0,58.567,7.451,84.364,21.55c0.047,0.025,0.093,0.051,0.14,0.076
c43.534,23.843,95.508,23.864,139.056,0.059c0.038-0.021,0.075-0.042,0.113-0.063c25.828-14.145,55.049-21.622,84.496-21.622
c0.002,0,0,0,0.002,0c29.449,0,58.668,7.478,84.497,21.625c43.57,23.863,95.595,23.862,139.165,0.001
c0.021-0.013,0.043-0.024,0.065-0.036c25.813-14.124,55.011-21.591,84.438-21.591c29.42,0,58.61,7.463,84.421,21.582
c0.027,0.015,0.055,0.03,0.082,0.045c43.539,23.847,95.521,23.862,139.074,0.049c0.032-0.018,0.064-0.035,0.096-0.053
c25.829-14.146,55.047-21.623,84.496-21.623s58.667,7.477,84.496,21.623c43.58,23.867,95.604,23.866,139.172,0.005
c0.039-0.021,0.079-0.043,0.118-0.064c25.803-14.108,54.98-21.564,84.389-21.564c29.448-0.001,58.666,7.476,84.494,21.62
c0.038,0.021,0.076,0.042,0.114,0.063c43.549,23.807,95.528,23.791,139.063-0.051c7.52-4.121,16.955-1.361,21.073,6.159
c4.119,7.521,1.361,16.955-6.159,21.073C1929.089,1166.27,1899.872,1173.746,1870.425,1173.746z">
<animateTransform attributeName="transform" type="translate" from="0 0" to="312.5 0" dur="1s" calcMode="linear" repeatCount="indefinite" />
</path>
</svg>
